<mxfile host="Electron" agent="Mozilla/5.0 (Windows NT 10.0; Win64; x64) AppleWebKit/537.36 (KHTML, like Gecko) draw.io/24.7.17 Chrome/128.0.6613.36 Electron/32.0.1 Safari/537.36" version="24.7.17">
  <diagram name="Page-1" id="fkdTdfTSfqe04--LZOhh">
    <mxGraphModel dx="863" dy="505" grid="1" gridSize="10" guides="1" tooltips="1" connect="1" arrows="1" fold="1" page="1" pageScale="1" pageWidth="850" pageHeight="1100" math="0" shadow="0">
      <root>
        <mxCell id="0" />
        <mxCell id="1" parent="0" />
        <mxCell id="vECCvjNEFOKyDlT5g4xr-5" style="edgeStyle=orthogonalEdgeStyle;rounded=0;orthogonalLoop=1;jettySize=auto;html=1;exitX=0.5;exitY=1;exitDx=0;exitDy=0;exitPerimeter=0;entryX=0.5;entryY=0;entryDx=0;entryDy=0;" edge="1" parent="1" source="vECCvjNEFOKyDlT5g4xr-3" target="vECCvjNEFOKyDlT5g4xr-4">
          <mxGeometry relative="1" as="geometry" />
        </mxCell>
        <mxCell id="vECCvjNEFOKyDlT5g4xr-3" value="Start" style="strokeWidth=2;html=1;shape=mxgraph.flowchart.start_1;whiteSpace=wrap;" vertex="1" parent="1">
          <mxGeometry x="390" y="10" width="100" height="60" as="geometry" />
        </mxCell>
        <mxCell id="vECCvjNEFOKyDlT5g4xr-7" style="edgeStyle=orthogonalEdgeStyle;rounded=0;orthogonalLoop=1;jettySize=auto;html=1;exitX=0.5;exitY=1;exitDx=0;exitDy=0;entryX=0.5;entryY=0;entryDx=0;entryDy=0;" edge="1" parent="1" source="vECCvjNEFOKyDlT5g4xr-4" target="vECCvjNEFOKyDlT5g4xr-6">
          <mxGeometry relative="1" as="geometry" />
        </mxCell>
        <mxCell id="vECCvjNEFOKyDlT5g4xr-4" value="Input N" style="rounded=1;whiteSpace=wrap;html=1;absoluteArcSize=1;arcSize=14;strokeWidth=2;" vertex="1" parent="1">
          <mxGeometry x="390" y="120" width="100" height="40" as="geometry" />
        </mxCell>
        <mxCell id="vECCvjNEFOKyDlT5g4xr-6" value="i = 0" style="rounded=1;whiteSpace=wrap;html=1;absoluteArcSize=1;arcSize=14;strokeWidth=2;" vertex="1" parent="1">
          <mxGeometry x="390" y="210" width="100" height="40" as="geometry" />
        </mxCell>
        <mxCell id="vECCvjNEFOKyDlT5g4xr-10" style="edgeStyle=orthogonalEdgeStyle;rounded=0;orthogonalLoop=1;jettySize=auto;html=1;exitX=0;exitY=0.5;exitDx=0;exitDy=0;exitPerimeter=0;entryX=0.5;entryY=0;entryDx=0;entryDy=0;" edge="1" parent="1" source="vECCvjNEFOKyDlT5g4xr-8" target="vECCvjNEFOKyDlT5g4xr-9">
          <mxGeometry relative="1" as="geometry" />
        </mxCell>
        <mxCell id="vECCvjNEFOKyDlT5g4xr-12" style="edgeStyle=orthogonalEdgeStyle;rounded=0;orthogonalLoop=1;jettySize=auto;html=1;exitX=1;exitY=0.5;exitDx=0;exitDy=0;exitPerimeter=0;entryX=0.5;entryY=0;entryDx=0;entryDy=0;" edge="1" parent="1" source="vECCvjNEFOKyDlT5g4xr-8" target="vECCvjNEFOKyDlT5g4xr-11">
          <mxGeometry relative="1" as="geometry" />
        </mxCell>
        <mxCell id="vECCvjNEFOKyDlT5g4xr-8" value="Apakah i &amp;lt; N?" style="strokeWidth=2;html=1;shape=mxgraph.flowchart.decision;whiteSpace=wrap;" vertex="1" parent="1">
          <mxGeometry x="390" y="300" width="100" height="100" as="geometry" />
        </mxCell>
        <mxCell id="vECCvjNEFOKyDlT5g4xr-29" style="edgeStyle=orthogonalEdgeStyle;rounded=0;orthogonalLoop=1;jettySize=auto;html=1;exitX=0.5;exitY=1;exitDx=0;exitDy=0;entryX=0.5;entryY=0;entryDx=0;entryDy=0;" edge="1" parent="1" source="vECCvjNEFOKyDlT5g4xr-9" target="vECCvjNEFOKyDlT5g4xr-27">
          <mxGeometry relative="1" as="geometry" />
        </mxCell>
        <mxCell id="vECCvjNEFOKyDlT5g4xr-9" value="No" style="rounded=1;whiteSpace=wrap;html=1;absoluteArcSize=1;arcSize=14;strokeWidth=2;" vertex="1" parent="1">
          <mxGeometry x="230" y="400" width="100" height="40" as="geometry" />
        </mxCell>
        <mxCell id="vECCvjNEFOKyDlT5g4xr-11" value="Yes" style="rounded=1;whiteSpace=wrap;html=1;absoluteArcSize=1;arcSize=14;strokeWidth=2;" vertex="1" parent="1">
          <mxGeometry x="560" y="400" width="100" height="40" as="geometry" />
        </mxCell>
        <mxCell id="vECCvjNEFOKyDlT5g4xr-13" style="edgeStyle=orthogonalEdgeStyle;rounded=0;orthogonalLoop=1;jettySize=auto;html=1;exitX=0.5;exitY=1;exitDx=0;exitDy=0;entryX=0.5;entryY=0;entryDx=0;entryDy=0;entryPerimeter=0;" edge="1" parent="1" source="vECCvjNEFOKyDlT5g4xr-6" target="vECCvjNEFOKyDlT5g4xr-8">
          <mxGeometry relative="1" as="geometry" />
        </mxCell>
        <mxCell id="vECCvjNEFOKyDlT5g4xr-18" style="edgeStyle=orthogonalEdgeStyle;rounded=0;orthogonalLoop=1;jettySize=auto;html=1;exitX=0;exitY=0.5;exitDx=0;exitDy=0;exitPerimeter=0;entryX=0.5;entryY=0;entryDx=0;entryDy=0;" edge="1" parent="1" source="vECCvjNEFOKyDlT5g4xr-14" target="vECCvjNEFOKyDlT5g4xr-16">
          <mxGeometry relative="1" as="geometry" />
        </mxCell>
        <mxCell id="vECCvjNEFOKyDlT5g4xr-19" style="edgeStyle=orthogonalEdgeStyle;rounded=0;orthogonalLoop=1;jettySize=auto;html=1;exitX=1;exitY=0.5;exitDx=0;exitDy=0;exitPerimeter=0;entryX=0.5;entryY=0;entryDx=0;entryDy=0;" edge="1" parent="1" source="vECCvjNEFOKyDlT5g4xr-14" target="vECCvjNEFOKyDlT5g4xr-17">
          <mxGeometry relative="1" as="geometry" />
        </mxCell>
        <mxCell id="vECCvjNEFOKyDlT5g4xr-14" value="Apakah i % 3 == 2 ?" style="strokeWidth=2;html=1;shape=mxgraph.flowchart.decision;whiteSpace=wrap;" vertex="1" parent="1">
          <mxGeometry x="540" y="500" width="140" height="120" as="geometry" />
        </mxCell>
        <mxCell id="vECCvjNEFOKyDlT5g4xr-15" style="edgeStyle=orthogonalEdgeStyle;rounded=0;orthogonalLoop=1;jettySize=auto;html=1;exitX=0.5;exitY=1;exitDx=0;exitDy=0;entryX=0.5;entryY=0;entryDx=0;entryDy=0;entryPerimeter=0;" edge="1" parent="1" source="vECCvjNEFOKyDlT5g4xr-11" target="vECCvjNEFOKyDlT5g4xr-14">
          <mxGeometry relative="1" as="geometry" />
        </mxCell>
        <mxCell id="vECCvjNEFOKyDlT5g4xr-23" style="edgeStyle=orthogonalEdgeStyle;rounded=0;orthogonalLoop=1;jettySize=auto;html=1;exitX=0.5;exitY=1;exitDx=0;exitDy=0;entryX=0.5;entryY=0;entryDx=0;entryDy=0;" edge="1" parent="1" source="vECCvjNEFOKyDlT5g4xr-16" target="vECCvjNEFOKyDlT5g4xr-20">
          <mxGeometry relative="1" as="geometry" />
        </mxCell>
        <mxCell id="vECCvjNEFOKyDlT5g4xr-16" value="No" style="rounded=1;whiteSpace=wrap;html=1;absoluteArcSize=1;arcSize=14;strokeWidth=2;" vertex="1" parent="1">
          <mxGeometry x="440" y="640" width="100" height="40" as="geometry" />
        </mxCell>
        <mxCell id="vECCvjNEFOKyDlT5g4xr-22" style="edgeStyle=orthogonalEdgeStyle;rounded=0;orthogonalLoop=1;jettySize=auto;html=1;exitX=0.5;exitY=1;exitDx=0;exitDy=0;entryX=0.5;entryY=0;entryDx=0;entryDy=0;" edge="1" parent="1" source="vECCvjNEFOKyDlT5g4xr-17" target="vECCvjNEFOKyDlT5g4xr-21">
          <mxGeometry relative="1" as="geometry" />
        </mxCell>
        <mxCell id="vECCvjNEFOKyDlT5g4xr-17" value="Yes" style="rounded=1;whiteSpace=wrap;html=1;absoluteArcSize=1;arcSize=14;strokeWidth=2;" vertex="1" parent="1">
          <mxGeometry x="690" y="640" width="100" height="40" as="geometry" />
        </mxCell>
        <mxCell id="vECCvjNEFOKyDlT5g4xr-20" value="Print &quot;dog&quot;" style="rounded=1;whiteSpace=wrap;html=1;absoluteArcSize=1;arcSize=14;strokeWidth=2;" vertex="1" parent="1">
          <mxGeometry x="440" y="760" width="100" height="40" as="geometry" />
        </mxCell>
        <mxCell id="vECCvjNEFOKyDlT5g4xr-21" value="Print &quot;cat&quot;" style="rounded=1;whiteSpace=wrap;html=1;absoluteArcSize=1;arcSize=14;strokeWidth=2;" vertex="1" parent="1">
          <mxGeometry x="690" y="760" width="100" height="40" as="geometry" />
        </mxCell>
        <mxCell id="vECCvjNEFOKyDlT5g4xr-24" value="End" style="strokeWidth=2;html=1;shape=mxgraph.flowchart.terminator;whiteSpace=wrap;" vertex="1" parent="1">
          <mxGeometry x="560" y="860" width="100" height="60" as="geometry" />
        </mxCell>
        <mxCell id="vECCvjNEFOKyDlT5g4xr-25" style="edgeStyle=orthogonalEdgeStyle;rounded=0;orthogonalLoop=1;jettySize=auto;html=1;exitX=0.5;exitY=1;exitDx=0;exitDy=0;entryX=0;entryY=0.5;entryDx=0;entryDy=0;entryPerimeter=0;" edge="1" parent="1" source="vECCvjNEFOKyDlT5g4xr-20" target="vECCvjNEFOKyDlT5g4xr-24">
          <mxGeometry relative="1" as="geometry" />
        </mxCell>
        <mxCell id="vECCvjNEFOKyDlT5g4xr-26" style="edgeStyle=orthogonalEdgeStyle;rounded=0;orthogonalLoop=1;jettySize=auto;html=1;exitX=0.5;exitY=1;exitDx=0;exitDy=0;entryX=1;entryY=0.5;entryDx=0;entryDy=0;entryPerimeter=0;" edge="1" parent="1" source="vECCvjNEFOKyDlT5g4xr-21" target="vECCvjNEFOKyDlT5g4xr-24">
          <mxGeometry relative="1" as="geometry" />
        </mxCell>
        <mxCell id="vECCvjNEFOKyDlT5g4xr-27" value="End" style="rounded=1;whiteSpace=wrap;html=1;absoluteArcSize=1;arcSize=14;strokeWidth=2;" vertex="1" parent="1">
          <mxGeometry x="230" y="480" width="100" height="40" as="geometry" />
        </mxCell>
      </root>
    </mxGraphModel>
  </diagram>
</mxfile>
